<svg xmlns="http://www.w3.org/2000/svg" width="358.344" height="125.27" viewBox="0 0 358.344 125.27">
    <defs>
        <style>
            .cls-1{fill:none;stroke:#fff;stroke-width:1.759px}.cls-2{fill:#fff}.cls-3{fill:#008f35}.cls-4{fill:#ffcb00}.cls-5{fill:#2a2723}.cls-6{fill:#00722c}.cls-7{fill:#009035}
        </style>
    </defs>
    <g id="Logo_ABQM" data-name="Logo ABQM" transform="translate(-119.123 -225.086)">
        <g id="sigla" transform="translate(227.053 237.971)">
            <path id="path2" d="M284.139 354.957h138.472" class="cls-1" transform="translate(-282.874 -281.904)"/>
            <path id="path4" d="M579.811 354.957h53.5" class="cls-1" transform="translate(-382.895 -281.904)"/>
            <path id="path6" d="M612.409 305.352a78.421 78.421 0 0 0-11.812.613c-.439.092-.265-1.047 0-1.047 6.735-.7 7.348-.876 7.172-14.178l-.523-32.292-20.3 47.517a.574.574 0 0 1-.961-.09L565.239 260.9l-.521 29.841c-.267 11.809-.178 13.475 7.961 14.178.175 0 .346 1.139-.088 1.047a59.408 59.408 0 0 0-8.666-.613 62.765 62.765 0 0 0-10.586.613c-.44.092-.263-1.047 0-1.047 7.789-.876 8.224-1.75 8.4-14.178l.616-30.72c0-6.212-2.975-9.1-9.713-9.8-.264 0-.435-1.053 0-1.053 4.289.617 7.876.7 15.049.7l21.006 46.3 12.952-30.632c2.449-5.773 4.811-11.377 5.951-16.014a64.742 64.742 0 0 0 15.136-.351c.528 0 .265 1.053.09 1.053-9.1.791-8.925 1.224-8.754 14.178l.528 26.339c.175 12.95 0 13.387 9.186 14.178.178 0 .44 1.139 0 1.047a109.447 109.447 0 0 0-11.373-.613z" class="cls-2" transform="translate(-373.613 -246.118)"/>
            <path id="path8" d="M393.215 280.578c0 5.744 0 15 .075 16.116.234 3.657.234 4.7 2.634 5.821 2.091.971 12.8 1.123 14.2 1.123 4.177 0 10.915-2.168 10.915-10.6 0-4.477-1.55-10.968-7.508-14.923a13.093 13.093 0 0 0-6.426-2.163c-1.007-.152-12.264-.152-13.425-.152-.312 0-.465.152-.465.525v4.252zm0-7.907c0 .519.153.668.539.818.467.073 9.247.3 12.113.3 4.334 0 5.415-.15 7.043-1.94a11.307 11.307 0 0 0 2.785-7.537c0-6.192-2.865-12.834-10.448-12.834-.85 0-9.866.078-11.105.375-.7.15-.928.371-.928.821v20zm-6.19-1.646c0-11.64 0-13.731-.157-16.118-.155-2.534-.773-3.73-3.326-4.254a15.047 15.047 0 0 0-2.632-.226c-.31 0-.621-.149-.621-.445 0-.446.388-.6 1.24-.6 3.483 0 8.357.225 8.744.225 1.857 0 12.267-.225 15.824-.225 12.694 0 15.479 7.464 15.479 11.2 0 6.116-3.637 9.773-7.275 13.429 5.727 1.718 13.389 7.015 13.389 15.746 0 7.986-6.5 16.267-19.734 16.267-.851 0-10.718-.148-12.962-.225-2.244-.149-4.41-.224-4.721-.224-.153 0-1.471 0-3.1.076-1.544 0-3.324.148-4.482.148-.854 0-1.24-.148-1.24-.6 0-.225.152-.447.617-.447a12.62 12.62 0 0 0 2.325-.3c1.546-.3 1.932-1.943 2.243-4.107.388-3.132.388-9.029.388-16.191v-13.128z" class="cls-2" transform="translate(-315.4 -246.191)"/>
            <path id="path10" d="M322.509 281c.43 0 .43-.22.345-.515l-8.2-19.889c-.428-1.1-.865-1.1-1.294 0l-7.6 19.889c-.173.367 0 .515.259.515zm-8.981-29.463c1.036-2.43 1.382-2.872 1.9-2.872s.865.37 1.9 2.652c1.3 2.8 14.852 33.22 20.123 44.417 3.109 6.558 5.613 7.732 7.426 8.175a13.042 13.042 0 0 0 3.454.442c.518 0 .865.075.865.443 0 .441-.778.587-1.726.587-1.293 0-7.6 0-13.557-.146-1.644-.074-2.593-.074-2.593-.516 0-.293.26-.444.606-.514.516-.15 1.035-.811.516-1.99l-8.031-18.121a.758.758 0 0 0-.777-.44l-19.039.089a.9.9 0 0 0-.865.588l-5.871 12.949a13.605 13.605 0 0 0-1.21 4.934c0 1.472 1.815 2.137 3.283 2.137h.864c.606 0 .863.149.863.443 0 .441-.518.587-1.295.587-2.072 0-5.785-.22-6.734-.22s-5.7.22-9.76.22c-1.122 0-1.64-.146-1.64-.587 0-.294.344-.443.776-.443.6 0 1.813-.075 2.507-.146 3.969-.443 5.7-3.241 7.252-6.925z" class="cls-2" transform="translate(-282.228 -245.947)"/>
            <path id="path12" d="M491.735 304.855c-13.177 0-26.82-10.652-26.82-31.211 0-16.954 10.283-26.954 24.2-26.954 13.176 0 26.818 10.56 26.818 31.217.002 16.952-10.368 26.948-24.198 26.948zm39.712 11.857a24.276 24.276 0 0 1-9.9 1.855c-7.1 0-16.166-5.185-23.828-12.6 15.415-3.794 25.7-18.154 25.7-31.215 0-15.75-13.082-30.2-32.146-30.2-19.9 0-33.829 16.951-33.829 32.141 0 15.653 12.712 29.919 31.5 30.291 0 0 4.58-.081 6.448 1.9 2.443 2.593 17.978 18.2 36.162 8.939.471-.278.091-1.211-.1-1.117z" class="cls-3" transform="translate(-341.498 -244.558)"/>
            <path id="path14" d="M527.545 356.416a22.471 22.471 0 0 0 3.657.275c8.308 0 11.9-2.753 15.566-4.8-19.174 9.738-34.8-5.528-37.243-8.123-1.869-1.978-7.5-1.9-7.5-1.9 7.889 7.184 14.213 11.168 20.149 13.166a54.809 54.809 0 0 0 5.373 1.384z" class="cls-4" transform="translate(-356.58 -277.476)"/>
        </g>
        <g id="logo" transform="translate(119.123 225.086)">
            <path id="path16" d="M170.743 253.87l3.36-1.651 2.549 2.746-.531-3.711 3.4-1.572-3.687-.641-.447-3.717-1.75 3.309-3.673-.719 2.607 2.683z" class="cls-2" transform="translate(-136.32 -231.932)"/>
            <path id="path18" d="M185.148 267.938l-.011.081a.29.29 0 0 1 .021-.064z" class="cls-5" transform="translate(-141.454 -239.582)"/>
            <path id="path20" d="M156.6 254.714l2.295-2.619 3.17 1.441-1.783-2.99 2.345-2.571-3.393.769-1.718-3.028-.312 3.47-3.415.7 3.2 1.364z" class="cls-2" transform="translate(-130.85 -232.064)"/>
            <path id="path22" d="M190.119 260.058l-1.531-3.127-3.438.561 2.5-2.42-1.593-3.094 3.076 1.628 2.45-2.471-.605 3.428 3.113 1.57-3.448.48z" class="cls-2" transform="translate(-141.459 -233.898)"/>
            <path id="path24" d="M138.247 281.761c-1.979-1.147-1.788-2.771-1.979-3.546a48.246 48.246 0 0 1-.764-5.844c0-1.147-1.02-2.433-1.724-3.919s-2.554-5.4-2.677-5.676a1.761 1.761 0 0 0-2.3-.337c-1.341.607-2.871.137-3.255.337a10.6 10.6 0 0 1-2.423.744c-.639.067-.574.877-1.021 1.148s-1.722-.476-1.722-.476-.637-.332-.764-.606-.126-.65-.385-1.417c-.379-1.149.323-1.261.323-1.261s1.083-.993 1.466-1.333 2-2.243 2.038-2.947c.066-1.149 1.085-1.824 1.536-2.364.22-.272.723-.542.889-.952a1.594 1.594 0 0 0 0-.94c-.7-.54 0-2.773 0-2.773h.257a1.9 1.9 0 0 0 .253.948c.258.338.766 1.486 1.087 1.149s.891.066.891.066c-.51-.742.254-2.569.254-2.569h.258v.2a5.733 5.733 0 0 0 .255 1.285c.127.338 1.149 2.026 1.149 2.026a10.057 10.057 0 0 1 1.374.842c.382.33.709.228 1.175.126.959-.2 8.035 3.923 11.289 7.679a5.034 5.034 0 0 0 4.085 2.026 30.337 30.337 0 0 1 4.658 1.893 21.9 21.9 0 0 0 7.972-1.147c3.827-1.42 6.825-2.635 11.29-.88a13.152 13.152 0 0 0 1.66.539 17.209 17.209 0 0 1 1.848.61s3.51-.472 5.741 4.528a24.018 24.018 0 0 1 1.848 14.255 4.738 4.738 0 0 0-.189-1.352c-.191-.474-1.148 3.174-1.53 3.782v-1.351a19.34 19.34 0 0 0-1.148 2.969 10.487 10.487 0 0 0-.255 1.352 12.311 12.311 0 0 1 .191-2.834c.251-.609-.575 1.078-.575.808s.063-1.957.063-2.431-.51.271-.446-2.9.574-5.541.066-7.772-.318-2.567-.318-2.567a11.808 11.808 0 0 1-.257 2.3 23.243 23.243 0 0 1-1.723 5.945c-1.085 1.893-2.546 3.785-2.039 5.271a28.489 28.489 0 0 1 1.277 3.715 1.941 1.941 0 0 0 .32 1.083c.189.4.892 1.757.443 2.769a14.455 14.455 0 0 0-.381 4.459c0 1.283.063 4.93.063 5.2s0 .538-.258.675a1.169 1.169 0 0 0-.443.676c-.066.2-.7.337-.7.812s.384 1.083.384 1.284-.576.6-.576.6a14.665 14.665 0 0 1-3 0 12.184 12.184 0 0 1 1.084-1.69.776.776 0 0 1 .447-.674c.443-.2.636-.542.636-1.281a3.511 3.511 0 0 1 .129-1.623 57.59 57.59 0 0 0 .067-6.556l-.2-.268s-1.145 4.05-1.213 4.8.2 1.823-.509 2.631a5.825 5.825 0 0 1-1.276 1.149s-.319.476-.064.813.574.812.382 1.012a1.773 1.773 0 0 1-.638.339 8.138 8.138 0 0 1-2.741.136s.444-1.149.57-1.417a2.773 2.773 0 0 1 .7-1.079c.445-.41.893-.341.893-.952s.317-.808.766-1.955a30.113 30.113 0 0 0 .893-5.4c0-.476-.893-2.7-.893-4.395v-2.971a6.02 6.02 0 0 1-1.151-2.571 11.7 11.7 0 0 0-2.675-4.389c-.445-.4-.7-.267-1.212-.2s-.511-.2-1.089-.471-2.932 1.08-3.95 1.826c-1.006.731-5.585 2.242-10.65 2.808l-.261.026c-5.167.539-2.421.4-2.679.4a30.444 30.444 0 0 1 .7 3.718c.191 1.759.576 3.444.576 4.459a14.615 14.615 0 0 0 .124 3.108c.2.339.9 3.514.9 3.514s1.009 1.014.757 1.419-.751.473-.757 1.15-.248 1.824 0 2.026.326.4 0 .473a2.536 2.536 0 0 0-.772.4s-.575.745-2.486.339a1.725 1.725 0 0 1 .51-1.081 2.466 2.466 0 0 1 .89-.74c.382-.206.191-.539.446-1.22s.385-1.08.385-1.08a1.676 1.676 0 0 1-.512-1.082 30.153 30.153 0 0 0-1.148-4.053 15.619 15.619 0 0 1-1.4-3.242 51.409 51.409 0 0 0-1.725-5.4c-.38-.88-.444-.542-.444.13s-.744 2.773-.339 3.921a6.488 6.488 0 0 1 0 3.848 4.708 4.708 0 0 0-.363 2.366 20.315 20.315 0 0 0 .363 3.313c.148.471.488.877 0 1.282a7.984 7.984 0 0 0-.875.877 4.843 4.843 0 0 0-.445 1.556c0 .2.575.539.385.676a7.639 7.639 0 0 0-.765.879 15.612 15.612 0 0 1-3-.069v-.27a9.8 9.8 0 0 1 1.565-1.959c.536-.337.408-.676.665-1.081a5.37 5.37 0 0 0 .571-1.689 6.42 6.42 0 0 1 .065-1.147c.067-.205-.189-3.783-.189-3.783a12.561 12.561 0 0 1-.639-3.649c.063-1.553.1-2.723-.473-3.583a9.265 9.265 0 0 1-1.5-6.277z" class="cls-2" transform="translate(-119.123 -233.242)"/>
            <path id="path26" d="M209.621 262.134c5.566 5.83 8 12.634 8 21.332a32.371 32.371 0 0 1-10.206 23.627.309.309 0 0 1-.046.047c19.561-9.14 37.083-28.169 37.083-28.169-11.557-1.493-24.872-8.701-34.831-16.837z" class="cls-4" transform="translate(-148.975 -237.619)"/>
            <path id="path28" d="M294.57 225.086c1.016 8.559 2.325 18.882-2.611 34.135l9.291-25.44c1.875-5.396-4.501-8.3-6.68-8.695z" class="cls-6" transform="translate(-177.59 -225.086)"/>
            <path id="path30" d="M242.481 238.341c-15.108 11.4-59.688-5.086-78.371-3.674-17.278 1.3-24.214 11.793-24.214 11.793.022-.017.043-.03.063-.047a34.515 34.515 0 0 1 20.86-6.98c8.889 0 16.057 3.191 23.128 8.847a52.92 52.92 0 0 0 9.142 6.259c24.524 14.786 34.967 12.907 34.967 12.907a108.519 108.519 0 0 1-43.124 31.984c23.37 3.915 39.757-1.979 39.759-1.979l15.828-35.018.04-.086c1.988-7.79 2.994-18.447 1.923-24.007z" class="cls-7" transform="translate(-126.15 -228.298)"/>
        </g>
        <g id="bottom" transform="translate(228.099 323.503)">
            <path id="path36" d="M295.215 394.32c2.474 0 7.586-1.429 7.586-9.427 0-6.6-4.012-10.142-8.355-10.142-4.59 0-8.026 3.023-8.026 9.042 0 6.4 3.848 10.527 8.795 10.527zm3.655.11a10.742 10.742 0 0 1-4.315.934c-7.613 0-10.746-5.855-10.746-10.8a10.639 10.639 0 0 1 10.828-10.746c6.184 0 10.8 3.929 10.8 10.307a11.308 11.308 0 0 1-4.864 9.234l5.634 2.914c6.019 3.105 10.2 3.242 11.571 3.242a15.553 15.553 0 0 0 5.414-1.071 1.7 1.7 0 0 1 .385-.111.159.159 0 0 1 .165.165c0 .11-.055.193-.22.275a20.991 20.991 0 0 1-8.713 1.9c-3.325 0-6.871-1.21-11.323-3.684z" class="cls-2" transform="translate(-283.809 -373.816)"/>
            <path id="path38" d="M321.626 385.852c0-3.628 0-4.287-.055-5.03s-.192-1.181-.989-1.292a7.69 7.69 0 0 0-.824-.055.233.233 0 0 1-.192-.192c0-.138.11-.193.384-.193 1.1 0 2.556.055 2.776.055s1.731-.055 2.446-.055c.275 0 .412.055.412.193a.236.236 0 0 1-.22.192 2.825 2.825 0 0 0-.6.055c-.632.111-.77.523-.825 1.292-.055.743-.055 1.4-.055 5.03v3.27c0 3.38.741 4.782 1.787 5.717a4.71 4.71 0 0 0 3.6 1.265 4.962 4.962 0 0 0 3.729-1.649c1.126-1.347 1.374-3.27 1.374-5.662v-2.941c0-3.628-.028-4.287-.055-5.03s-.165-1.181-.962-1.292a7.873 7.873 0 0 0-.825-.054.206.206 0 0 1-.192-.192c0-.138.11-.193.384-.193 1.071 0 2.474.055 2.611.055.165 0 1.319-.055 2.033-.055.275 0 .384.055.384.193a.206.206 0 0 1-.192.192 2.859 2.859 0 0 0-.6.054c-.66.138-.8.523-.852 1.292-.055.743-.027 1.4-.027 5.03v2.5c0 2.529-.33 5.36-2.254 7.008a7.312 7.312 0 0 1-5.056 1.7 7.55 7.55 0 0 1-5.03-1.648c-1.182-1.1-2.116-2.721-2.116-6.129v-3.435z" class="cls-2" transform="translate(-295.905 -375.6)"/>
            <path id="path40" d="M356.87 389.063c.11 0 .11-.055.082-.165l-2.391-6.4q-.206-.536-.412 0l-2.254 6.4c-.027.11 0 .165.083.165zm-2.693-9.729c.3-.769.412-.906.577-.906.247 0 .329.329.577.851.439.989 4.315 10.636 5.8 14.183.879 2.088 1.539 2.391 2.061 2.556a3.357 3.357 0 0 0 .961.136c.138 0 .3.055.3.193s-.275.193-.549.193c-.357 0-2.143 0-3.82-.055-.467-.028-.852-.028-.852-.165 0-.11.055-.11.165-.165a.439.439 0 0 0 .22-.632l-2.171-5.36c-.055-.11-.083-.137-.22-.137h-5.579a.255.255 0 0 0-.247.192l-1.374 3.739a4.83 4.83 0 0 0-.357 1.566c0 .467.412.632.824.632h.22c.192 0 .247.083.247.193 0 .138-.137.193-.357.193-.577 0-1.9-.083-2.171-.083-.247 0-1.456.083-2.446.083-.3 0-.467-.055-.467-.193a.212.212 0 0 1 .22-.193 6.5 6.5 0 0 0 .715-.055c1.1-.137 1.567-.961 2.034-2.143z" class="cls-2" transform="translate(-304.685 -375.375)"/>
            <path id="path42" d="M378.739 387.831a.345.345 0 0 0 .165.3 8.208 8.208 0 0 0 2.665.357 3.145 3.145 0 0 0 1.814-.412 4.172 4.172 0 0 0 1.456-3.573c0-2.914-1.593-4.59-4.177-4.59a10.548 10.548 0 0 0-1.732.138.3.3 0 0 0-.192.275v7.5zm-2.089-1.979c0-3.628 0-4.288-.055-5.03-.055-.8-.192-1.181-.989-1.292a7.892 7.892 0 0 0-.824-.055.233.233 0 0 1-.192-.192c0-.138.109-.193.384-.193 1.1 0 2.721.055 2.858.055.247 0 2.281-.055 3.023-.055a7.926 7.926 0 0 1 4.508 1.017 4.1 4.1 0 0 1 1.676 3.187c0 1.732-.715 3.408-2.968 5.332 1.979 2.473 3.655 4.59 5.058 6.047a4.561 4.561 0 0 0 3.545 1.7.213.213 0 0 1 .22.193c0 .138-.138.193-.578.193H390.8a4.876 4.876 0 0 1-2.583-.467c-1.044-.55-1.924-1.676-3.3-3.435-1.016-1.265-2.088-2.777-2.611-3.409a.37.37 0 0 0-.33-.137l-3.078-.055c-.11 0-.165.055-.165.192V390c0 2.254 0 4.068.11 5.03.082.687.22 1.127.961 1.237a8.879 8.879 0 0 0 1.072.11.172.172 0 0 1 .193.193c0 .11-.11.193-.385.193-1.319 0-2.858-.083-2.968-.083-.027 0-1.649.083-2.391.083-.247 0-.384-.055-.384-.193a.186.186 0 0 1 .193-.193 3.451 3.451 0 0 0 .741-.11c.468-.11.523-.55.633-1.237a47.829 47.829 0 0 0 .137-5.057v-4.122z" class="cls-2" transform="translate(-314.518 -375.6)"/>
            <path id="path44" d="M405.863 389.806c0 2.254 0 4.095.11 5.058.083.686.193 1.127.935 1.237a9.4 9.4 0 0 0 1.1.11.171.171 0 0 1 .193.192c0 .111-.111.193-.385.193-1.319 0-2.858-.083-3-.083-.11 0-1.786.083-2.5.083-.275 0-.385-.056-.385-.193 0-.083.055-.165.193-.165a3.175 3.175 0 0 0 .715-.11c.494-.11.632-.578.715-1.264.11-.963.11-2.8.11-5.058v-9.811l-3.491.055c-1.511.027-2.088.193-2.446.742a3.776 3.776 0 0 0-.384.742c-.055.193-.138.22-.247.22a.183.183 0 0 1-.165-.193c0-.247.494-2.335.522-2.528.055-.138.165-.439.247-.439a8.524 8.524 0 0 0 1.071.274c.688.083 1.622.11 1.9.11h9.124a12.036 12.036 0 0 0 1.732-.11c.357-.054.577-.11.687-.11s.11.137.11.275c0 .714-.082 2.39-.082 2.665 0 .192-.111.3-.22.3s-.165-.083-.192-.412l-.028-.247c-.082-.715-.6-1.237-2.913-1.292l-3.023-.055v9.811z" class="cls-2" transform="translate(-322.076 -375.432)"/>
            <path id="path46" d="M431.573 395.935c2.171 0 6.542-1.154 6.542-7.915 0-5.607-3.408-8.547-7.229-8.547-4.04 0-6.953 2.528-6.953 7.613 0 5.441 3.267 8.849 7.64 8.849zm-.549-17.342c5.442 0 9.565 3.325 9.565 8.767a9.36 9.36 0 0 1-9.7 9.537c-6.624 0-9.455-4.975-9.455-9.179a9.253 9.253 0 0 1 9.592-9.124z" class="cls-2" transform="translate(-330.364 -375.431)"/>
            <path id="path48" d="M469.912 391.517c0 2.025 0 3.8.022 4.162a3.61 3.61 0 0 0 .225 1.372c.247.361.945.766 3.284.766a6.638 6.638 0 0 0 4.635-1.732 6.442 6.442 0 0 0 1.553-4.545 6.627 6.627 0 0 0-1.868-4.792c-1.867-1.889-4.049-2.137-6.411-2.137a5.283 5.283 0 0 0-1.192.136.335.335 0 0 0-.247.382v6.388zm-1.8-2.07c0-2.969 0-3.51-.045-4.117-.044-.652-.157-.968-.81-1.057a6.556 6.556 0 0 0-.675-.045.19.19 0 0 1-.158-.157c0-.112.091-.158.316-.158.9 0 2.182.045 2.295.045.225 0 1.485-.045 2.655-.045 1.98 0 5.6-.18 7.941 2.182a6.716 6.716 0 0 1 1.935 4.858 7.656 7.656 0 0 1-2.137 5.376 7.944 7.944 0 0 1-6.006 2.2c-.855 0-1.912-.067-2.767-.111a50.977 50.977 0 0 0-1.62-.112c-.045 0-.405.022-.81.022-.4.022-.877.044-1.192.044-.2 0-.315-.044-.315-.156a.152.152 0 0 1 .157-.157 2.833 2.833 0 0 0 .607-.09c.383-.09.427-.45.517-1.012a38.8 38.8 0 0 0 .113-4.139v-3.375z" class="cls-2" transform="translate(-345.585 -377.23)"/>
            <path id="path50" d="M494.286 389.368c0-2.969 0-3.51-.044-4.117-.045-.652-.157-.968-.811-1.057a6.2 6.2 0 0 0-.676-.045.19.19 0 0 1-.157-.157c0-.112.09-.158.315-.158.9 0 2.182.045 2.295.045.135 0 4.275.022 4.725 0 .382-.023.742-.091.9-.113.091-.022.18-.091.27-.091.068 0 .09.091.09.181 0 .135-.112.36-.157.9-.022.18-.068 1.035-.112 1.26-.022.09-.091.2-.18.2-.112 0-.157-.09-.157-.247a2.078 2.078 0 0 0-.113-.675c-.134-.316-.337-.45-1.417-.585-.337-.044-2.632-.068-2.857-.068-.09 0-.113.068-.113.2v5.2c0 .134 0 .2.113.2.247 0 2.857 0 3.307-.044.473-.046.765-.068.967-.27.135-.136.225-.248.293-.248s.113.045.113.158a10.387 10.387 0 0 0-.158 1.057c-.044.382-.09 1.1-.09 1.238 0 .157-.045.359-.179.359-.091 0-.135-.068-.135-.18a1.682 1.682 0 0 0-.091-.629c-.067-.269-.247-.495-1.012-.586-.54-.067-2.655-.09-2.992-.09a.119.119 0 0 0-.135.136v1.6c0 .651-.022 2.879 0 3.262.045 1.282.4 1.53 2.362 1.53a6.592 6.592 0 0 0 1.98-.2 1.454 1.454 0 0 0 .9-1.327c.044-.226.089-.292.2-.292s.134.158.134.292a15.785 15.785 0 0 1-.269 1.844c-.135.5-.338.5-1.1.5-1.485 0-2.632-.045-3.442-.068-.833-.044-1.35-.044-1.642-.044-.044 0-.427 0-.855.022a22.58 22.58 0 0 1-1.147.044c-.2 0-.314-.044-.314-.157a.151.151 0 0 1 .156-.158 5.653 5.653 0 0 0 .607-.09c.382-.068.427-.45.517-1.012a39.016 39.016 0 0 0 .113-4.138v-3.375z" class="cls-2" transform="translate(-354.439 -377.15)"/>
            <path id="path52" d="M545.883 391.433c.11.989.3 2.528 1.484 2.913a5.97 5.97 0 0 0 1.786.247c.138 0 .22.028.22.138 0 .165-.247.247-.577.247-.6 0-3.573-.083-4.59-.165-.632-.055-.769-.138-.769-.275 0-.11.055-.165.192-.193s.165-.494.11-.989l-1.319-14.181h-.083l-6.737 14.291c-.577 1.209-.66 1.457-.907 1.457-.193 0-.33-.275-.852-1.265-.715-1.347-3.078-6.1-3.216-6.376-.247-.495-3.325-7.091-3.628-7.833h-.109l-1.1 12.753c-.027.439-.027.934-.027 1.4a.879.879 0 0 0 .715.852 5.013 5.013 0 0 0 1.044.137c.11 0 .22.056.22.138 0 .193-.165.247-.494.247-1.016 0-2.336-.083-2.556-.083-.247 0-1.567.083-2.309.083-.275 0-.467-.055-.467-.247 0-.083.137-.138.275-.138a3.578 3.578 0 0 0 .824-.081c.907-.165.989-1.237 1.1-2.282l1.979-17.919c.027-.3.138-.494.3-.494s.275.11.412.412l8.411 17.288 8.081-17.26c.109-.247.22-.439.412-.439s.275.22.33.742z" class="cls-2" transform="translate(-364.357 -373.815)"/>
            <path id="path54" d="M569.935 389.974c0 2.254 0 4.095.11 5.058.083.686.165 1.127.879 1.237a10 10 0 0 0 1.1.11.186.186 0 0 1 .193.192c0 .111-.11.193-.385.193-1.347 0-2.913-.083-3.023-.083-.138 0-1.649.083-2.39.083-.248 0-.386-.056-.386-.193a.186.186 0 0 1 .193-.192 3.5 3.5 0 0 0 .742-.11c.468-.11.55-.551.633-1.237.11-.963.137-2.8.137-5.058v-4.122c0-3.628 0-4.287-.055-5.03-.055-.8-.247-1.154-.77-1.264a4.328 4.328 0 0 0-.742-.083.207.207 0 0 1-.193-.191c0-.138.11-.193.385-.193.8 0 2.308.055 2.446.055.11 0 1.676-.055 2.419-.055.275 0 .384.055.384.193a.233.233 0 0 1-.192.191 2.666 2.666 0 0 0-.6.056c-.66.137-.8.468-.852 1.291-.027.742-.027 1.4-.027 5.03v4.122z" class="cls-2" transform="translate(-379.261 -375.6)"/>
            <path id="path56" d="M583.858 390.029c0 3.436.055 4.838.494 5.25.385.385 1.32.551 3.215.551 1.265 0 2.337-.028 2.914-.715a2.869 2.869 0 0 0 .577-1.32c.028-.165.11-.3.247-.3.11 0 .165.11.165.358a14.754 14.754 0 0 1-.357 2.337c-.165.549-.248.632-1.539.632-1.732 0-3.078-.028-4.2-.083-1.1-.027-1.924-.054-2.638-.054-.11 0-.522 0-.989.027-.495.027-1.017.056-1.4.056-.247 0-.384-.056-.384-.193a.186.186 0 0 1 .192-.192 3.5 3.5 0 0 0 .742-.11c.468-.111.523-.551.633-1.237a47.86 47.86 0 0 0 .137-5.058v-4.122c0-3.628 0-4.287-.055-5.03-.055-.8-.192-1.181-.989-1.291a7.711 7.711 0 0 0-.824-.056.233.233 0 0 1-.192-.191c0-.138.11-.193.384-.193 1.1 0 2.61.055 2.748.055.11 0 1.924-.055 2.666-.055.247 0 .384.055.384.193 0 .081-.11.164-.193.164-.165 0-.522.027-.8.055-.715.138-.852.495-.907 1.319-.027.742-.027 1.4-.027 5.03v4.177z" class="cls-2" transform="translate(-383.869 -375.6)"/>
            <path id="path58" d="M617.39 389.974c0 2.254.027 4.095.137 5.058.083.686.138 1.127.879 1.237a9.6 9.6 0 0 0 1.072.11.2.2 0 0 1 .22.192c0 .111-.137.193-.412.193-1.319 0-2.858-.083-3-.083-.11 0-1.676.083-2.391.083-.274 0-.384-.056-.384-.193a.186.186 0 0 1 .193-.192 3.255 3.255 0 0 0 .714-.11c.495-.11.577-.578.66-1.264.11-.963.11-2.722.11-4.976v-2.336c0-.109-.055-.136-.138-.136h-10.083c-.083 0-.138.027-.138.136v2.336c0 2.254 0 4.04.11 5 .083.686.165 1.127.879 1.237a10 10 0 0 0 1.1.11.186.186 0 0 1 .193.192c0 .111-.11.193-.385.193-1.347 0-2.885-.083-3-.083-.138 0-1.676.083-2.418.083-.247 0-.385-.056-.385-.193a.186.186 0 0 1 .193-.192 3.5 3.5 0 0 0 .742-.11c.468-.11.523-.551.633-1.237a47.882 47.882 0 0 0 .137-5.058v-4.122c0-3.628 0-4.287-.056-5.03-.054-.8-.191-1.181-.989-1.291a7.711 7.711 0 0 0-.825-.056.233.233 0 0 1-.192-.191c0-.138.11-.193.384-.193 1.1 0 2.638.055 2.775.055.11 0 1.649-.055 2.391-.055.275 0 .384.055.384.193a.233.233 0 0 1-.192.191 2.665 2.665 0 0 0-.6.056c-.66.137-.8.468-.852 1.291-.027.742-.027 1.457-.027 5.086v.494c0 .138.055.138.138.138h10.086c.083 0 .138 0 .138-.138v-.494c0-3.628-.027-4.343-.055-5.086-.055-.8-.165-1.181-.962-1.291a7.683 7.683 0 0 0-.824-.056.206.206 0 0 1-.193-.191c0-.138.11-.193.385-.193 1.072 0 2.638.055 2.748.055.138 0 1.677-.055 2.391-.055.275 0 .412.055.412.193a.237.237 0 0 1-.22.191 2.787 2.787 0 0 0-.6.056c-.633.137-.77.468-.824 1.291-.055.742-.055 1.4-.055 5.03z" class="cls-2" transform="translate(-390.963 -375.6)"/>
            <path id="path60" d="M641.445 389.063c.11 0 .11-.055.082-.165l-2.391-6.4q-.206-.536-.412 0l-2.254 6.4c-.027.11 0 .165.083.165zm-2.693-9.729c.3-.769.412-.906.577-.906.247 0 .329.329.577.851.439.989 4.315 10.636 5.8 14.183.879 2.088 1.539 2.391 2.061 2.556a3.357 3.357 0 0 0 .961.136c.138 0 .3.055.3.193s-.275.193-.549.193c-.357 0-2.144 0-3.82-.055-.468-.028-.852-.028-.852-.165 0-.11.055-.11.165-.165a.439.439 0 0 0 .22-.632l-2.171-5.36c-.055-.11-.083-.137-.22-.137h-5.58a.255.255 0 0 0-.247.192l-1.374 3.739a4.83 4.83 0 0 0-.357 1.566c0 .467.412.632.824.632h.22c.192 0 .247.083.247.193 0 .138-.137.193-.357.193-.577 0-1.9-.083-2.171-.083-.247 0-1.457.083-2.446.083-.3 0-.467-.055-.467-.193a.213.213 0 0 1 .22-.193 6.5 6.5 0 0 0 .715-.055c1.1-.137 1.567-.961 2.034-2.143z" class="cls-2" transform="translate(-400.951 -375.375)"/>
        </g>
    </g>
</svg>
